<?xml version="1.0" encoding="utf-8"?>
<!-- Generator: Adobe Illustrator 18.0.0, SVG Export Plug-In . SVG Version: 6.00 Build 0)  -->
<!DOCTYPE svg PUBLIC "-//W3C//DTD SVG 1.1//EN" "http://www.w3.org/Graphics/SVG/1.1/DTD/svg11.dtd">
<svg version="1.1" id="Ebene_1" xmlns="http://www.w3.org/2000/svg" xmlns:xlink="http://www.w3.org/1999/xlink" x="0px" y="0px"
	 viewBox="0 0 640 480" enable-background="new 0 0 640 480" xml:space="preserve">
<polygon fill="#EC8E00" points="543.5,26.4 15.3,149.3 77.1,453.5 624.7,405 "/>
<polygon fill="#FFFFFF" points="70.9,126.6 93.4,411.2 577.8,433.5 539.8,81.2 "/>
<g>
	<path fill="#EC8E00" d="M196.4,286.7c-27.8-0.1-50.9,23.5-51.6,50.9c-0.5,27.8,21.6,51.3,49.1,51.6c12.7,0.1,21.2-3.4,30.7-11.6
		l7.1,11.3h10.5v-51.8h-45.8v13.2h9.9c0.1,4.8-5.7,8.3-11.8,8.2c-7.3-0.1-13.8-4.5-13.8-12.7v-11.4c0-8.1,5.6-15.1,14.8-15.7
		c7.7-0.4,13.5,5.7,14,10.4h32c-0.3-8.2-2.6-14.2-6.4-20.1C224.5,292.6,210.4,286.7,196.4,286.7"/>
	<path fill="#D6326C" d="M451.1,181c13.3,0,24.1-10.8,24.1-24.1c0-13.3-10.8-24.1-24.1-24.1c-13.3,0-24.1,10.8-24.1,24.1
		C427,170.2,437.8,181,451.1,181"/>
	<path fill="none" stroke="#D6326C" stroke-width="1.213" d="M451.1,181c13.3,0,24.1-10.8,24.1-24.1c0-13.3-10.8-24.1-24.1-24.1
		c-13.3,0-24.1,10.8-24.1,24.1C427,170.2,437.8,181,451.1,181z"/>
	<path fill="#FFFFFF" d="M447.3,150.1l0.3,2.5c0,0,0.2,1.7,0.2,3.1c0,0.6-0.1,1.7,0,1.9v-0.1l-0.3,1.3c-1.1,2.9-2.8,7.4-2.9,7.6
		l0.1-0.1l-0.1,0.1l-0.1,0.3c-0.1,0.1-0.9,2-1.5,3.2c-0.1,0.3-1.3,3-1.3,3.2c0,0.1-0.3,0.9-0.3,1l0,0c-0.1,0.3-0.5,1.3-0.8,1.5
		c0,0,0,0,0,0c0,0-0.2,0.1-1.3,0.1h0l0,0c0,0-0.4,0.1-0.5,0.3c0,0.1-0.1,0.3,0.1,0.5c0,0,0.1,0.1,0.1,0.1l0,0l0.1,0
		c0.7,0.3,1.5,0.6,1.6,0.6l0,0c0,0,0,0,0,0l0.3,0.1l0,0c0.1,0.1,0.3,0.2,1.3,0.3l0,0l0,0c0.3,0,0.8-0.2,0.8-0.7l0,0l0,0
		c0,0-0.1-0.5,0-1l0,0c0-0.1,0.3-0.7,0.3-0.8c0.1-0.5,0.3-1.1,0.4-1.1c0,0,0,0,0,0l0,0l0,0c0.1-0.2,0.2-0.4,0.2-0.4l0,0l0,0
		c0-0.1,0.9-1.5,1.1-2.1c0.1-0.2,0.8-1.8,0.9-2c0,0,0.3-0.6,1-1.8l0,0c0.1-0.2,1.4-1.7,1.5-2l0,0c0,0,0.8-0.9,1.3-1.9
		c0,0,0.7-1.2,1-2.1l0,0v0c0-0.1-0.1-0.3-0.2-0.3c-0.2-0.1-0.4,0.2-0.5,0.4c-0.4,0.6-0.8,1.2-0.8,1.3l0,0l0,0l-1.2,1.8
		c-0.1,0.2-0.5,0.8-0.5,0.8c0,0-0.7,0.8-1.1,1.2c-0.4,0.4-0.4,0.5-0.4,0.5l0,0l0,0.1l0,0c-0.2,0.5-0.8,1.6-0.9,1.7l0,0
		c-0.3,0.7-0.6,1.6-0.7,1.6l0.1-0.3l-0.1,0.4c-0.2,0.5-0.5,1.1-0.5,1.2l0,0l0,0c-0.3,0.5-0.6,1.1-0.7,1.2l0,0c0,0,0,0,0,0
		c0,0.1-0.4,0.7-0.4,1l0,0c-0.1,0.3-0.4,1.5-0.4,1.7c0,0.5,0.1,0.8,0.1,0.9l0-0.1c0,0,0,0,0,0.1c0,0-0.1,0.1-0.4,0
		c-0.3,0-0.6-0.1-0.7-0.2c0,0-0.3-0.2-0.5-0.3c-0.5-0.2-1.3-0.5-1.3-0.5s-0.1,0,0.2,0h0.8l0,0l0.2,0l0,0l0,0c0,0,0.2-0.1,0.3-0.1
		l-0.1,0c0.2,0.1,0.5-0.2,1-0.9c0,0,0.5-1,0.7-1.8l0,0c0.4-1.1,1.1-2.8,1.2-3c0,0,1.4-2.9,1.4-2.9c0.1-0.2,0.7-1.5,0.7-1.7l0,0
		c1-2.8,2.3-6.2,2.3-6.3l0,0l0.9-2.2l0,0l0,0l-0.3-2.1c0,0-0.1-2.3-0.1-2.3v0l0,0l-0.6-2.7l0,0l0,0l-0.1-0.2l-0.4-0.4L447.3,150.1z"
		/>
	<path fill="#FFFFFF" d="M452.6,163.2l3,3.9c0,0,1.1,1.2,1.1,1.2l0,0l1.4,2.8c0,0,0.2,0.4,0.2,0.4l0,0l0,0c0.1,0.1,1.3,1.9,1.5,2.1
		c0.5,0.7,0.8,1,0.8,1l0,0l0.1,0.1c0,0,0.3,0.6,0.3,0.6c0,0,0.5,1,0.5,1l0,0c0,0.1,0,0.7,0.2,0.9l0,0c0,0,0.2,0.2,0.4,0.1
		c0,0,0.2-0.1,0.3-0.2l0,0c0,0,0.1-0.1,0.3-0.2l0,0c0,0,0.3-0.1,0.7-0.5l0,0c0.2-0.1,0.8-0.5,1-0.6c0.1,0,0.5-0.2,0.6-0.4l0,0
		c0,0,0.2-0.2,0.1-0.4c0-0.1-0.2-0.2-0.4-0.3l0,0l0,0c0,0-1.1,0.1-1.4,0.1c0,0-0.4,0.1-0.8-0.3l0,0l-2.5-4.9c0,0-1.4-2.9-1.4-2.9
		l0,0l0,0l-1.4-2.3c0,0-0.1-0.3-0.1-0.3c0,0-2.8-5.8-2.8-5.8l0,0l-0.3-3.6v0l0.1-2.3l0,0l1.3-3l0,0c0,0,0.5-0.4,1.2-0.6l4-1.5l0,0
		l0,0l7.3-4.2l0,0l0,0l1.1-1l-0.1-0.1l-0.6,0.2l0,0c-0.2,0.1-1.4,0.4-1.5,0.4c-0.6,0.2-1.2,0.5-1.3,0.5l0,0c0,0,0,0,0,0
		c-0.7,0.3-1.7,0.7-1.8,0.7l0,0l0,0c-0.1,0-2,0.9-2,0.9c-0.6,0.3-1.6,0.7-1.7,0.7l0,0l0,0c-0.5,0.2-1.4,0.5-1.5,0.5h0h0l-3.1,0.8
		c0,0-1.1,0.3-1.1,0.3l0,0l0,0c0,0-0.2,0.1-0.2,0.2c0,0.1,0.1,0.1,0.2,0.2l0,0l0,0l2.3-0.6c0.1,0,1.6-0.5,1.8-0.5
		c0.3-0.1,1.2-0.4,1.3-0.4l0,0c0.2-0.1,1.5-0.5,1.5-0.6c0,0,1.6-0.7,1.6-0.7c0.8-0.3,1.9-0.8,2-0.8l0,0c0,0,0,0,0,0
		c0.1,0-1.3,0.7-1.6,0.7l0,0l0,0l-1.8,0.9c0,0-1.5,0.7-1.5,0.7l0,0l-6.9,2.3c0,0-0.3,0.1-0.3,0.1l0,0l0,0L453,149l0,0l0,0l-1,4.9
		l0,0v0l0.3,6.4v0l0,0l3.7,5.6l-3.3-2.9L452.6,163.2z"/>
	<path fill="#FFFFFF" d="M452.4,146.5l0.2,0.3l0.3,0.4l0-0.6l0-0.6l0,0c0,0,0.2-1.1,0.3-1.4l0,0l0.3-0.7c0,0,0.1-0.4,0-0.8l0,0.1
		c0,0,0.2-1-0.8-1.9l0,0l0,0c0,0-0.7-0.5-1.4-0.4h0.1c0,0-0.7-0.1-1.5,0.8c0,0-0.5,0.6-0.4,1.4l0-0.1c0,0-0.3,1,0.3,1.6l0-0.1
		l0.2,1.2l0,0l0,0l0.2,0.3l0.3,0.4l0-0.5l0-0.2v0l0,0l-0.3-1.4l0-0.1l-0.1,0c0,0-0.3-0.2-0.2-1l0,0l0,0c0,0-0.1-0.7,0.5-1.3l-0.1,0
		l1.8,0.2l-0.1-0.1c0,0,0.6,1,0.7,1.6v0l-0.2,2.5L452.4,146.5L452.4,146.5z"/>
	<path fill="#FFFFFF" d="M443.9,147.6l-1.3-0.6c0,0-7.8-4-7.8-4l8.6,3.4l0,0l0,0l1.2,0.3c0,0,3.7,0.9,3.7,0.9l0,0l0,0
		c0.2,0,0.4-0.1,0.4-0.3c0-0.1-0.2-0.2-0.2-0.2c0,0-2.9-0.7-2.9-0.7c-0.6-0.1-2.4-0.7-2.4-0.7c-0.1,0-0.8-0.3-1.2-0.5l-4.2-1.7
		c0,0-3.3-1.2-3.3-1.2l0,0l0,0c-0.3-0.1-0.6-0.1-0.6-0.1l-0.7-0.1l-0.5-0.1l0.4,0.3l1.2,1l0,0l0,0l1.6,0.6l0,0l6.7,3.8l0,0l0,0
		l3.8,1.4l0.1-0.2C446.7,149.1,444,147.6,443.9,147.6"/>
</g>
<polygon fill="#B4B6B7" points="312.8,148.2 257.3,148.2 247,186.5 236.5,148.2 159.6,148.2 159.7,278.9 202.7,278.9 202.7,198.8 
	227.8,278.9 265.7,278.9 290.7,198.1 290.5,278.9 339.6,279.1 339.6,187.1 "/>
<g>
	<path fill="#B4B6B7" d="M418.6,166.8l-11.5,19.7l-20.8-38.3h-59.5l53.4,81.6v49.2h47.7v-48.7l25.1-39.1c-0.6,0-1.3,0.1-1.9,0.1
		C435.8,191.2,422.8,180.9,418.6,166.8"/>
</g>
<polygon fill="#EC8E00" points="471,388 471,288.2 411.1,288.2 403.6,317.4 396,288.2 359.4,288.2 339.9,317.1 340,387.9 
	371.3,387.9 371.3,326.7 389.6,387.9 417.2,387.9 435.4,326.2 435.3,387.9 "/>
<polygon fill="#EC8E00" points="271.2,350.4 271.2,387.9 308.7,387.9 308.7,350.8 350.1,288.2 309.9,288.2 292.3,317.4 276,288.2 
	229.1,288.2 "/>
</svg>
